# xmcd CD database file
#
# Track frame offsets:
#	150
#	13573
#	26564
#	39390
#	56178
#	72299
#	88346
#	102612
#	116961
#	128310
#	143825
#	153155
#	167204
#	181535
#	191961
#
# Disc length: 2690 seconds
#
# Revision: 0
# Processed by: cddbd v1.5.1PL2 Copyright (c) Steve Scherf et al.
# Submitted via: Feurio! 1.68 - http://www.feurio.com
#
DISCID=ce0a800f
DTITLE=Benny Goodman - Benny Goodman -Grandes Éxitos-
DYEAR=1900
DGENRE=
TTITLE0=Bugle Call Rag
TTITLE1=Stardust
TTITLE2=Somebody Love Me
TTITLE3=Sometimes I'm Happy
TTITLE4=Christopher Columbus
TTITLE5=Blue Skies
TTITLE6=King Porter Stomp
TTITLE7=Swingiime in The Rockies
TTITLE8=Goody Goody
TTITLE9=Goodbye
TTITLE10=I Know that You Know
TTITLE11=Get Happy
TTITLE12=When Buddha Smiles
TTITLE13=Dear Old Southland
TTITLE14=I've Found a New Baby
EXTD=
EXTT0=
EXTT1=
EXTT2=
EXTT3=
EXTT4=
EXTT5=
EXTT6=
EXTT7=
EXTT8=
EXTT9=
EXTT10=
EXTT11=
EXTT12=
EXTT13=
EXTT14=
PLAYORDER=
